<svg width="164" height="147" viewBox="0 0 164 147" fill="none" xmlns="http://www.w3.org/2000/svg">
<g clip-path="url(#clip0_1207_911)">
<path d="M162.07 56.2158C162.012 56.2158 161.955 56.1978 161.907 56.1643L82.8206 0.830872C82.5799 0.663266 82.2939 0.573694 82.0011 0.574196C81.7082 0.574698 81.4225 0.665248 81.1824 0.833678L2.66596 56.1637C2.60386 56.2075 2.527 56.2247 2.45228 56.2115C2.37757 56.1983 2.31112 56.1559 2.26756 56.0935C2.224 56.0311 2.20689 55.9539 2.22 55.8788C2.23312 55.8037 2.27537 55.737 2.33748 55.6932L80.854 0.363181C81.1902 0.127415 81.5901 0.000679624 82.0001 2.7257e-06C82.4101 -0.000674172 82.8105 0.124739 83.1474 0.359394L162.234 55.6927C162.284 55.7276 162.321 55.7777 162.341 55.8356C162.36 55.8935 162.361 55.9562 162.343 56.0146C162.325 56.0729 162.288 56.1239 162.239 56.1601C162.19 56.1963 162.131 56.2158 162.07 56.2158Z" fill="#3F3D56"/>
<path d="M7.15271 58.1772L82.0789 2.38998L157.574 62.1467L85.9395 104.81L47.0482 95.9035L7.15271 58.1772Z" fill="#E6E6E6"/>
<path d="M50.3309 131.161H13.3155C13.0883 131.161 12.8631 131.116 12.6531 131.029C12.443 130.942 12.2521 130.814 12.0913 130.652C11.9305 130.491 11.8029 130.299 11.7158 130.089C11.6288 129.878 11.584 129.651 11.584 129.423C11.584 129.195 11.6288 128.969 11.7158 128.758C11.8029 128.547 11.9305 128.355 12.0913 128.194C12.2521 128.033 12.443 127.905 12.6531 127.817C12.8631 127.73 13.0883 127.685 13.3155 127.686H50.3309C50.5582 127.685 50.7833 127.73 50.9934 127.817C51.2035 127.905 51.3944 128.033 51.5552 128.194C51.716 128.355 51.8436 128.547 51.9306 128.758C52.0177 128.969 52.0625 129.195 52.0625 129.423C52.0625 129.651 52.0177 129.878 51.9306 130.089C51.8436 130.299 51.716 130.491 51.5552 130.652C51.3944 130.814 51.2035 130.942 50.9934 131.029C50.7833 131.116 50.5582 131.161 50.3309 131.161Z" fill="#2E86C1"/>
<path d="M26.5958 123.691H13.3155C13.0883 123.691 12.8631 123.647 12.6531 123.559C12.443 123.472 12.2521 123.344 12.0913 123.183C11.9305 123.022 11.8029 122.83 11.7158 122.619C11.6288 122.408 11.584 122.182 11.584 121.954C11.584 121.725 11.6288 121.499 11.7158 121.288C11.8029 121.077 11.9305 120.886 12.0913 120.724C12.2521 120.563 12.443 120.435 12.6531 120.348C12.8631 120.261 13.0883 120.216 13.3155 120.216H26.5958C26.8231 120.216 27.0482 120.261 27.2583 120.348C27.4684 120.435 27.6593 120.563 27.8201 120.724C27.9809 120.886 28.1085 121.077 28.1956 121.288C28.2826 121.499 28.3274 121.725 28.3274 121.954C28.3274 122.182 28.2826 122.408 28.1956 122.619C28.1085 122.83 27.9809 123.022 27.8201 123.183C27.6593 123.344 27.4684 123.472 27.2583 123.559C27.0482 123.647 26.8231 123.691 26.5958 123.691Z" fill="#2E86C1"/>
<path d="M83.1324 89.25C82.8511 89.2503 82.5724 89.1954 82.312 89.0885L36.1027 69.8259V9.53082C36.1033 8.99765 36.3144 8.48649 36.6896 8.10948C37.0649 7.73247 37.5737 7.5204 38.1044 7.51978H126.754C127.284 7.5204 127.793 7.73247 128.168 8.10948C128.544 8.48649 128.755 8.99765 128.755 9.53082V69.868L128.668 69.9053L83.9778 89.0791C83.7101 89.1921 83.4227 89.2502 83.1324 89.25Z" fill="white"/>
<path d="M83.1325 89.3934C82.8325 89.3938 82.5353 89.3353 82.2575 89.2214L35.9597 69.9218V9.53079C35.9604 8.95953 36.1865 8.41185 36.5886 8.00791C36.9907 7.60397 37.5358 7.37675 38.1045 7.3761H126.754C127.322 7.37675 127.867 7.60397 128.269 8.00791C128.672 8.41185 128.898 8.95953 128.898 9.53079V69.9628L84.0339 89.2111C83.7486 89.3317 83.4421 89.3937 83.1325 89.3934ZM36.5316 69.538L82.4756 88.6902C82.9042 88.8649 83.3841 88.862 83.8105 88.6822L128.326 69.5835V9.53079C128.326 9.11187 128.16 8.71025 127.865 8.41403C127.57 8.11781 127.171 7.95118 126.754 7.95068H38.1045C37.6875 7.95118 37.2877 8.11781 36.9929 8.41403C36.698 8.71025 36.5321 9.11187 36.5317 9.53079L36.5316 69.538Z" fill="#3F3D56"/>
<path d="M161.498 55.6412H161.441L128.612 69.7243L83.6958 88.9929C83.5203 89.0671 83.332 89.1058 83.1416 89.1068C82.9512 89.1077 82.7624 89.071 82.5862 88.9987L36.2456 69.684L2.61039 55.6642L2.559 55.6412H2.50175C1.97104 55.6418 1.46222 55.8539 1.08695 56.2309C0.711675 56.6079 0.500589 57.1191 0.5 57.6522V144.989C0.50059 145.522 0.711675 146.033 1.08695 146.41C1.46222 146.787 1.97104 146.999 2.50175 147H161.498C162.029 146.999 162.538 146.787 162.913 146.41C163.288 146.033 163.499 145.522 163.5 144.989V57.6522C163.499 57.1191 163.288 56.6079 162.913 56.2309C162.538 55.8539 162.029 55.6418 161.498 55.6412ZM162.928 144.989C162.928 145.37 162.777 145.735 162.509 146.005C162.241 146.274 161.877 146.425 161.498 146.425H2.50175C2.12259 146.425 1.759 146.274 1.49088 146.005C1.22277 145.735 1.07208 145.37 1.07193 144.989V57.6522C1.07245 57.2808 1.21587 56.9239 1.47222 56.6562C1.72856 56.3885 2.07798 56.2307 2.44744 56.2158L36.2456 70.3046L82.3661 89.5301C82.8654 89.7342 83.4248 89.7311 83.9217 89.5215L128.612 70.3477L161.555 56.2158C161.924 56.2318 162.273 56.39 162.528 56.6576C162.784 56.9251 162.927 57.2814 162.928 57.6522V144.989Z" fill="#3F3D56"/>
<path d="M82.6705 72.1525C80.9646 72.1557 79.3039 71.6015 77.939 70.5735L77.8544 70.5097L60.0356 56.8037C59.2104 56.1685 58.5178 55.3762 57.9974 54.472C57.4769 53.5679 57.1388 52.5696 57.0024 51.5342C56.866 50.4988 56.9339 49.4466 57.2023 48.4376C57.4706 47.4285 57.9342 46.4825 58.5665 45.6534C59.1988 44.8244 59.9874 44.1286 60.8873 43.6057C61.7873 43.0829 62.781 42.7432 63.8116 42.6061C64.8422 42.4691 65.8896 42.5373 66.894 42.8069C67.8983 43.0765 68.84 43.5422 69.6652 44.1774L81.2069 53.0685L108.482 17.3332C109.114 16.5043 109.903 15.8088 110.803 15.2863C111.703 14.7637 112.697 14.4244 113.728 14.2877C114.758 14.151 115.806 14.2197 116.81 14.4896C117.814 14.7596 118.756 15.2257 119.581 15.8612L119.411 16.0926L119.585 15.8646C121.249 17.1495 122.338 19.0452 122.613 21.1356C122.888 23.2261 122.326 25.3407 121.05 27.0154L88.9688 69.0487C88.2268 70.0173 87.2726 70.8011 86.1804 71.3394C85.0881 71.8777 83.8871 72.1559 82.6705 72.1525Z" fill="#2E86C1"/>
</g>
<defs>
<clipPath id="clip0_1207_911">
<rect width="163" height="147" fill="white" transform="translate(0.5)"/>
</clipPath>
</defs>
</svg>
