<svg width="238" height="136" viewBox="0 0 238 136" fill="none" xmlns="http://www.w3.org/2000/svg">
<g clip-path="url(#clip0_1207_791)">
<path d="M4.63513 40.8217C4.10121 40.9889 3.53265 41.0124 2.98673 40.89C2.44081 40.7675 1.9368 40.5035 1.52548 40.1244C1.11417 39.7452 0.810064 39.2645 0.643808 38.7305C0.477552 38.1964 0.455016 37.6281 0.57847 37.0826C2.43079 29.3796 9.47418 10.5418 35.1335 2.61868C46.2482 -0.813345 56.9072 -0.871935 66.8016 2.44325C74.9414 5.15927 80.345 9.4095 82.9298 11.4638C83.5866 11.9831 84.01 12.742 84.107 13.5734C84.204 14.4049 83.9666 15.2407 83.447 15.8972C83.4406 15.9053 83.4341 15.9134 83.4276 15.9215C82.894 16.58 82.123 17.0025 81.2807 17.0981C80.4384 17.1937 79.5922 16.9546 78.9246 16.4324C74.2416 12.7441 60.0303 1.53907 36.9977 8.65114C14.5078 15.5956 8.3987 31.8392 6.81414 38.485C6.69381 39.0339 6.42807 39.5405 6.04472 39.9516C5.66138 40.3627 5.17452 40.6632 4.63513 40.8217Z" fill="#2E86C1"/>
<path d="M74.5719 84.4518C74.317 84.5342 74.0527 84.5838 73.7853 84.5996C53.7394 85.6789 40.9854 69.0321 40.4618 68.3381L40.3647 68.1779C40.0451 67.6823 32.328 55.9458 35.7253 46.6247C37.2858 42.3634 40.737 39.3723 46.0121 37.7435C50.9182 36.2286 54.9328 36.6766 58.3499 39.1157C61.1518 41.1029 62.9474 44.0664 64.6879 46.9282C68.3077 52.8702 70.5261 55.8933 77.4064 54.1491C80.4274 53.3827 81.8379 51.0217 82.4823 49.1826C84.2174 44.1781 82.6797 37.3554 78.6114 32.1937C73.3554 25.4971 58.6465 14.3744 40.4982 19.9783C32.7484 22.3713 26.4059 27.0871 22.1585 33.5805C18.6398 38.9694 16.5943 45.6624 16.5494 51.9041C16.4788 63.5257 26.0074 78.8152 26.0977 78.9537C26.3171 79.3045 26.4652 79.695 26.5336 80.103C26.6021 80.511 26.5894 80.9285 26.4964 81.3316C26.4034 81.7347 26.2319 82.1156 25.9916 82.4524C25.7514 82.7893 25.4471 83.0755 25.0962 83.2948C25.0865 83.3009 25.0767 83.307 25.0669 83.3129C24.3479 83.7612 23.4814 83.9087 22.6545 83.7237C21.8276 83.5388 21.1067 83.0361 20.6474 82.3243C20.2174 81.6252 10.0429 65.3228 10.1249 51.8912C10.239 37.3323 19.0898 19.957 38.6273 13.9241C47.658 11.1356 57.1483 11.6043 66.0793 15.2645C73.0014 18.1188 79.4079 22.8438 83.6434 28.2391C89.0533 35.1259 90.9593 44.1405 88.4965 51.1763C86.8546 55.8668 83.4556 59.1032 78.9383 60.2604C67.1649 63.254 62.5528 55.7168 59.1891 50.2187C55.735 44.582 53.8244 41.9392 47.8546 43.7826C44.5767 44.7948 42.5572 46.4167 41.7079 48.747C40.5521 51.9325 41.6475 56.0155 42.7699 58.8779C42.7815 58.9079 42.7931 58.9377 42.8048 58.9675C44.2438 62.6057 46.4893 65.8704 49.3726 68.516C53.9913 72.7795 62.5658 78.8576 73.4943 78.2715C74.3297 78.2197 75.1516 78.5016 75.779 79.0555C76.4065 79.6093 76.7882 80.3896 76.8401 81.2248C76.8407 81.2348 76.8413 81.2449 76.8418 81.255C76.8675 81.9632 76.659 82.66 76.2487 83.2379C75.8384 83.8157 75.2491 84.2424 74.5719 84.4518Z" fill="#2E86C1"/>
<path d="M50.2634 90.4366C49.8455 90.5658 49.4058 90.609 48.9708 90.5636C48.5358 90.5182 48.1145 90.385 47.7324 90.1722C37.8454 84.5728 30.9047 77.0415 25.9067 66.4858L25.8866 66.4207C22.7367 59.3828 20.8405 48.6299 25.0232 39.5417C28.111 32.8359 33.9073 28.1224 42.2216 25.555C52.0555 22.5185 61.212 24.7542 68.7271 31.9893C72.1448 35.3285 74.9241 39.2633 76.9285 43.6001C77.248 44.3804 77.2474 45.255 76.9268 46.0348C76.6061 46.8147 75.9913 47.437 75.2152 47.7672C74.4392 48.0975 73.5642 48.109 72.7797 47.7995C71.9951 47.4899 71.364 46.884 71.0229 46.113C69.3258 42.4934 66.9826 39.2135 64.1082 36.4343C58.3156 30.9255 51.5819 29.2966 44.0708 31.6159C37.58 33.6202 33.1105 37.1634 30.8225 42.1485C27.523 49.3238 29.2218 58.2835 31.6868 63.7977C36.0938 73.1335 42.2066 79.7557 50.9085 84.6751C51.2679 84.8778 51.5839 85.1492 51.8384 85.4739C52.093 85.7987 52.281 86.1703 52.3918 86.5677C52.5027 86.965 52.5341 87.3803 52.4844 87.7898C52.4347 88.1993 52.3047 88.595 52.102 88.9544C52.094 88.9686 52.0858 88.9828 52.0776 88.9969C51.6722 89.6849 51.0257 90.198 50.2634 90.4366Z" fill="#2E86C1"/>
<path d="M51.3047 58.8806C53.5633 58.8806 55.3944 57.0503 55.3944 54.7926C55.3944 52.5348 53.5633 50.7046 51.3047 50.7046C49.046 50.7046 47.215 52.5348 47.215 54.7926C47.215 57.0503 49.046 58.8806 51.3047 58.8806Z" fill="#E6E6E6"/>
<path d="M125.045 104.711C124.961 104.711 124.876 104.705 124.793 104.692C124.576 104.66 124.368 104.585 124.181 104.472C123.993 104.359 123.83 104.21 123.7 104.033L121.454 100.989C121.324 100.813 121.23 100.613 121.177 100.4C121.125 100.188 121.114 99.9672 121.147 99.7509C121.18 99.5346 121.255 99.3268 121.368 99.1394C121.481 98.9521 121.63 98.7888 121.806 98.659L141.012 84.4999C141.188 84.37 141.388 84.2761 141.601 84.2235C141.813 84.1709 142.034 84.1606 142.25 84.1933C142.467 84.226 142.675 84.301 142.862 84.414C143.049 84.527 143.213 84.6758 143.343 84.8519L145.589 87.8964C145.851 88.252 145.962 88.6972 145.896 89.1342C145.83 89.5711 145.593 89.9639 145.237 90.2263L126.031 104.385C125.746 104.597 125.4 104.711 125.045 104.711Z" fill="#2E86C1"/>
<path d="M138.685 93.311L135.746 89.327C135.504 88.9987 135.402 88.5877 135.463 88.1844C135.524 87.7811 135.742 87.4185 136.071 87.1764L147.318 77.3262C147.646 77.0841 148.057 76.9823 148.461 77.0432C148.864 77.1041 149.227 77.3228 149.469 77.651L154.845 84.07C155.087 84.3983 155.189 84.8093 155.128 85.2126C155.067 85.6159 154.848 85.9785 154.52 86.2206L140.837 93.6358C140.508 93.8779 140.097 93.9797 139.694 93.9188C139.29 93.8579 138.927 93.6392 138.685 93.311Z" fill="#2F2E41"/>
<path d="M156.757 135.913H152.973C152.531 135.912 152.107 135.737 151.795 135.424C151.482 135.112 151.306 134.689 151.306 134.247V102.716C151.306 102.274 151.482 101.851 151.795 101.538C152.107 101.226 152.531 101.05 152.973 101.05H156.757C157.199 101.05 157.623 101.226 157.935 101.538C158.247 101.851 158.423 102.274 158.424 102.716V134.247C158.423 134.689 158.247 135.112 157.935 135.424C157.623 135.737 157.199 135.912 156.757 135.913Z" fill="#2E86C1"/>
<path d="M164.243 135.913H160.458C160.016 135.912 159.592 135.737 159.28 135.424C158.967 135.112 158.792 134.689 158.791 134.247V102.716C158.792 102.274 158.967 101.851 159.28 101.538C159.592 101.226 160.016 101.05 160.458 101.05H164.243C164.685 101.05 165.108 101.226 165.421 101.538C165.733 101.851 165.909 102.274 165.909 102.716V134.247C165.909 134.689 165.733 135.112 165.421 135.424C165.108 135.737 164.685 135.912 164.243 135.913Z" fill="#2E86C1"/>
<path d="M199.729 135.426H116.64V136H199.729V135.426Z" fill="#3F3D56"/>
<path d="M156.973 63.8902C164.553 63.8902 170.697 57.7484 170.697 50.1723C170.697 42.5961 164.553 36.4543 156.973 36.4543C149.394 36.4543 143.25 42.5961 143.25 50.1723C143.25 57.7484 149.394 63.8902 156.973 63.8902Z" fill="#2E86C1"/>
<path d="M178.219 119.745L170.272 84.4642V76.1284C170.272 75.5846 170.056 75.063 169.671 74.6785C169.286 74.2939 168.765 74.0779 168.22 74.0779H160.607V68.7175C160.607 68.4482 160.554 68.1815 160.451 67.9328C160.348 67.684 160.197 67.4579 160.006 67.2675C159.816 67.0771 159.59 66.9261 159.341 66.823C159.092 66.72 158.825 66.6669 158.556 66.6669H154.453C154.184 66.6669 153.917 66.72 153.668 66.823C153.419 66.9261 153.193 67.0771 153.002 67.2675C152.812 67.4579 152.661 67.684 152.558 67.9328C152.455 68.1815 152.402 68.4482 152.402 68.7175V74.0779H144.788C144.244 74.0779 143.722 74.2939 143.338 74.6785C142.953 75.063 142.737 75.5846 142.737 76.1284V119.981C142.737 120.244 142.788 120.504 142.887 120.748C142.98 121.186 143.216 121.581 143.559 121.869C143.902 122.157 144.331 122.323 144.778 122.339L176.94 123.411C178.862 123.461 179.734 120.962 178.219 119.745Z" fill="#2F2E41"/>
<path d="M157.105 55.0459C156.258 55.0221 155.203 54.9926 154.39 54.3991C154.148 54.2152 153.949 53.9807 153.807 53.7119C153.666 53.4431 153.584 53.1466 153.569 52.8432C153.555 52.6274 153.59 52.4111 153.673 52.2112C153.755 52.0113 153.883 51.8333 154.046 51.691C154.471 51.3326 155.092 51.2487 155.759 51.4447L155.067 46.3884L155.575 46.3188L156.388 52.263L155.964 52.0685C155.472 51.8427 154.797 51.7281 154.377 52.0825C154.274 52.1752 154.194 52.2904 154.143 52.4191C154.092 52.5479 154.071 52.6868 154.082 52.8249C154.094 53.0508 154.155 53.2713 154.261 53.4715C154.366 53.6717 154.513 53.8469 154.692 53.9851C155.325 54.4469 156.166 54.5067 157.12 54.5333L157.105 55.0459Z" fill="#2F2E41"/>
<path d="M152.554 46.8247H149.792V47.3373H152.554V46.8247Z" fill="#2F2E41"/>
<path d="M161.272 46.8247H158.51V47.3373H161.272V46.8247Z" fill="#2F2E41"/>
<path d="M144.955 41.3055C142.518 39.8287 141.37 37.0273 141.368 34.2567C141.366 32.7799 141.687 31.3206 142.308 29.9804C142.928 28.6402 143.833 27.4513 144.961 26.4966C147.471 24.326 150.815 23.2637 154.082 22.9938C158.034 22.6672 161.96 23.5259 165.735 24.6219C169.776 25.7955 173.737 27.2721 177.874 28.0937C181.888 28.891 185.914 28.9696 189.866 27.8167C193.514 26.7525 197.217 24.8722 201.114 25.1981C204.479 25.4795 207.035 27.7182 208.754 30.4841C212.168 35.9753 212.437 43.3457 217.346 47.9184C219.469 49.8955 222.234 50.7912 224.997 51.4606C227.647 52.1025 230.474 52.5138 232.905 53.8128C235.513 55.2059 237.091 57.8241 236.683 60.8242C236.22 64.2316 233.794 67.1643 231.124 69.166C228.312 71.2467 225.072 72.6743 221.639 73.345C218.206 74.0157 214.666 73.9126 211.278 73.0431C204.193 71.1641 198.434 65.6749 190.885 65.3309C186.674 65.139 182.528 66.2858 178.317 66.0957C175.399 65.9639 172.258 64.8855 170.225 62.7161C169.249 61.7011 168.64 60.39 168.492 58.99C168.446 58.5015 167.677 58.4967 167.723 58.99C168.012 62.0547 170.268 64.3185 172.962 65.5631C174.379 66.2133 175.893 66.6298 177.444 66.7965C179.505 67.024 181.605 66.8088 183.657 66.584C185.825 66.3464 187.996 66.0537 190.182 66.0799C192.177 66.1116 194.154 66.4631 196.038 67.1209C199.655 68.361 202.913 70.4184 206.369 72.0208C209.713 73.5716 213.215 74.5331 216.92 74.557C220.49 74.5748 224.022 73.8177 227.271 72.338C230.47 70.881 233.477 68.7062 235.469 65.7743C237.337 63.0254 238.317 59.4193 236.637 56.342C235.319 53.9301 232.807 52.7095 230.273 51.9581C227.465 51.1251 224.53 50.7446 221.781 49.7073C220.344 49.1911 219.022 48.3987 217.89 47.3747C216.676 46.1966 215.675 44.8167 214.933 43.2965C213.36 40.2275 212.555 36.8569 211.23 33.687C210.002 30.7507 208.322 27.7911 205.616 25.9815C204.162 25.0198 202.472 24.4745 200.729 24.4047C198.801 24.3176 196.886 24.7599 195.054 25.3174C193.115 25.9072 191.223 26.644 189.269 27.1869C187.212 27.7596 185.078 28.0143 182.944 27.9421C178.553 27.7991 174.312 26.4954 170.156 25.181C162.874 22.8783 154.776 20.4133 147.456 23.9627C144.604 25.3456 142.187 27.666 141.169 30.7129C140.267 33.4089 140.392 36.5536 141.782 39.0653C142.44 40.26 143.401 41.2613 144.567 41.9694C144.992 42.2266 145.379 41.5619 144.955 41.3055Z" fill="#2F2E41"/>
<path d="M166.172 109.856H162.387C161.945 109.856 161.521 109.68 161.209 109.368C160.896 109.055 160.721 108.632 160.72 108.19V86.3379C160.721 85.8962 160.896 85.4728 161.209 85.1604C161.521 84.8481 161.945 84.6724 162.387 84.6719H166.172C166.613 84.6724 167.037 84.8481 167.35 85.1604C167.662 85.4728 167.838 85.8962 167.838 86.3379V108.19C167.838 108.632 167.662 109.055 167.35 109.368C167.037 109.68 166.613 109.856 166.172 109.856Z" fill="#2E86C1"/>
<path d="M151.563 37.9113C151.647 38.5137 151.898 39.0806 152.287 39.548C152.677 40.0154 153.189 40.3648 153.767 40.5567C154.344 40.7486 154.964 40.7754 155.556 40.6341C156.147 40.4928 156.688 40.189 157.116 39.757L156.474 39.5873C156.832 40.5044 157.433 41.3068 158.213 41.909C158.992 42.5111 159.921 42.8903 160.899 43.006C161.877 43.1217 162.868 42.9697 163.767 42.566C164.665 42.1624 165.437 41.5223 166 40.7142C166.29 40.312 165.623 39.9277 165.336 40.3261C164.851 41.0051 164.192 41.5417 163.429 41.88C162.666 42.2182 161.826 42.3459 160.997 42.2495C160.168 42.1532 159.38 41.8365 158.715 41.3323C158.05 40.8282 157.532 40.155 157.215 39.3829C157.196 39.3191 157.161 39.2613 157.113 39.215C157.065 39.1687 157.006 39.1355 156.941 39.1185C156.877 39.1015 156.809 39.1012 156.745 39.1178C156.68 39.1344 156.621 39.1673 156.572 39.2132C156.239 39.5503 155.816 39.7857 155.354 39.8918C154.891 39.9979 154.408 39.9704 153.961 39.8125C153.513 39.6546 153.12 39.3728 152.827 39C152.534 38.6272 152.352 38.1787 152.304 37.7069C152.236 37.2189 151.494 37.4265 151.563 37.9113Z" fill="#2F2E41"/>
<path d="M127.314 92.5032L127.234 92.5576L125.745 90.3617C125.632 90.1948 125.487 90.0519 125.318 89.941C125.15 89.8301 124.961 89.7535 124.763 89.7155C124.565 89.6774 124.361 89.6788 124.164 89.7195C123.966 89.7601 123.779 89.8393 123.612 89.9524L118.958 93.1063C118.791 93.2194 118.648 93.3643 118.537 93.5327C118.426 93.7011 118.349 93.8897 118.311 94.0877C118.273 94.2857 118.274 94.4893 118.315 94.6867C118.356 94.8842 118.435 95.0718 118.548 95.2386L126.718 107.285C126.831 107.452 126.976 107.595 127.145 107.706C127.313 107.817 127.502 107.893 127.7 107.931C127.898 107.969 128.102 107.968 128.299 107.927C128.497 107.887 128.684 107.808 128.851 107.694L133.505 104.541C133.672 104.427 133.815 104.283 133.926 104.114C134.037 103.946 134.114 103.757 134.152 103.559C134.19 103.361 134.189 103.158 134.148 102.96C134.107 102.763 134.028 102.575 133.915 102.408L128.294 94.1206L128.374 94.0662L127.314 92.5032Z" fill="#3F3D56"/>
<path d="M123.964 90.5226L123.376 90.9211C123.448 90.969 123.507 91.0339 123.548 91.1101C123.589 91.1862 123.61 91.2713 123.611 91.3578C123.611 91.4443 123.59 91.5295 123.55 91.606C123.509 91.6824 123.451 91.7478 123.379 91.7964L120.799 93.5451C120.727 93.5937 120.644 93.6238 120.558 93.633C120.472 93.6422 120.385 93.63 120.305 93.5977C120.225 93.5654 120.154 93.5138 120.098 93.4475C120.043 93.3813 120.004 93.3024 119.986 93.2178L119.437 93.59C119.317 93.6718 119.213 93.7766 119.133 93.8983C119.053 94.02 118.997 94.1563 118.97 94.2995C118.942 94.4426 118.943 94.5897 118.973 94.7325C119.002 94.8752 119.059 95.0108 119.141 95.1314L127.037 106.774C127.119 106.895 127.224 106.998 127.346 107.078C127.467 107.158 127.604 107.214 127.747 107.241C127.89 107.269 128.037 107.268 128.18 107.238C128.323 107.209 128.459 107.152 128.579 107.07L133.106 104.003C133.349 103.837 133.517 103.582 133.573 103.293C133.628 103.004 133.567 102.705 133.402 102.461L125.505 90.8186C125.424 90.698 125.319 90.5946 125.197 90.5145C125.075 90.4343 124.939 90.3789 124.796 90.3514C124.653 90.324 124.505 90.325 124.363 90.3543C124.22 90.3837 124.084 90.4408 123.964 90.5226Z" fill="white"/>
</g>
<defs>
<clipPath id="clip0_1207_791">
<rect width="237" height="136" fill="white" transform="translate(0.5)"/>
</clipPath>
</defs>
</svg>
