<svg width="185" height="156" viewBox="0 0 185 156" fill="none" xmlns="http://www.w3.org/2000/svg">
<path d="M164.683 16.8179C160.981 16.8179 157.97 13.8061 157.97 10.1041C157.97 6.40233 160.981 3.39075 164.683 3.39075C168.385 3.39075 171.397 6.40239 171.397 10.1041C171.397 13.8061 168.385 16.8179 164.683 16.8179ZM164.683 4.54834C161.62 4.54834 159.127 7.04063 159.127 10.1041C159.127 13.1678 161.62 15.6603 164.683 15.6603C167.747 15.6603 170.239 13.1678 170.239 10.1041C170.239 7.04063 167.747 4.54834 164.683 4.54834Z" fill="#2E86C1"/>
<path d="M25.1885 21.4696C25.3293 23.1917 24.0476 24.7016 22.3258 24.8424C20.6038 24.9833 19.0939 23.7016 18.9531 21.9796C18.8123 20.2577 20.0938 18.7478 21.8159 18.607C23.5377 18.4661 25.0477 19.7477 25.1885 21.4696Z" fill="#DC4ECE"/>
<path d="M5.73441 48.2523C4.43756 48.1521 3.20855 47.6488 2.19774 46.7907C0.929599 45.7144 0.156562 44.2084 0.0209501 42.5504C-0.258897 39.1281 2.29775 36.1161 5.72017 35.8362C9.14259 35.5563 12.1544 38.1129 12.4343 41.5352C12.7142 44.9577 10.1577 47.9698 6.73538 48.2497C6.39892 48.2771 6.06444 48.2778 5.73441 48.2523ZM6.6213 36.9879C6.35673 36.9675 6.08724 36.9677 5.81446 36.9899C3.02819 37.2178 0.94679 39.6699 1.17466 42.456C1.28504 43.8059 1.91442 45.0319 2.94676 45.9082C3.9791 46.7845 5.29111 47.2064 6.64092 47.0959C9.42706 46.868 11.5084 44.4158 11.2805 41.6295C11.075 39.1161 9.05935 37.1763 6.6213 36.9879Z" fill="#2E86C1"/>
<path d="M101.057 0.405182H101.038H93.372H93.3529C77.1654 0.405182 63.9962 12.5264 63.9962 27.4258H64.0154V48.1397H77.7204V27.4258C77.7204 19.482 84.7414 13.0196 93.372 13.0196H101.038C109.668 13.0196 116.689 19.482 116.689 27.4258V48.1397H130.394V27.4258H130.414C130.414 12.5264 117.244 0.405182 101.057 0.405182Z" fill="#2E86C1"/>
<path d="M130.394 48.5448H116.689C116.466 48.5448 116.284 48.3634 116.284 48.1397V27.4258C116.284 19.7056 109.445 13.4247 101.038 13.4247H93.372C84.9651 13.4247 78.1255 19.7056 78.1255 27.4258V48.1397C78.1255 48.3634 77.9441 48.5448 77.7204 48.5448H64.0154C63.7916 48.5448 63.6102 48.3634 63.6102 48.1397V27.5493C63.5978 27.5103 63.5911 27.4689 63.5911 27.4258C63.5911 12.3032 76.9422 0 93.353 0H101.057C117.468 0 130.819 12.3032 130.819 27.4258C130.819 27.4689 130.812 27.5105 130.8 27.5494V48.1397C130.8 48.3635 130.618 48.5448 130.394 48.5448ZM117.095 47.7345H129.989V27.4258C129.989 27.383 129.996 27.3418 130.008 27.3031C129.935 12.6838 116.976 0.810253 101.057 0.810253H93.3529C77.4338 0.810253 64.4743 12.684 64.4017 27.3033C64.4139 27.3419 64.4205 27.3831 64.4205 27.4258V47.7345H77.3152V27.4258C77.3152 19.2588 84.5183 12.6144 93.372 12.6144H101.038C109.892 12.6144 117.095 19.2588 117.095 27.4258V47.7345Z" fill="#101111"/>
<path d="M148.411 118.699C148.411 123.857 143.9 128.039 138.336 128.039H56.0729C50.5089 128.039 45.9988 123.857 45.9988 118.699V54.8036C45.9988 49.6454 50.5089 45.4635 56.0729 45.4635H138.336C143.9 45.4635 148.411 49.6454 148.411 54.8036L148.411 118.699Z" fill="#2E86C1"/>
<path d="M138.336 128.444H56.0729C50.2947 128.444 45.5936 124.072 45.5936 118.699V54.8037C45.5936 49.4302 50.2947 45.0584 56.0729 45.0584H138.336C144.115 45.0584 148.816 49.4301 148.816 54.8037V118.699C148.816 124.072 144.115 128.444 138.336 128.444ZM56.0729 45.8687C50.7414 45.8687 46.4039 49.8769 46.4039 54.8037V118.699C46.4039 123.626 50.7414 127.634 56.0729 127.634H138.336C143.668 127.634 148.006 123.626 148.006 118.699V54.8037C148.006 49.8769 143.668 45.8687 138.336 45.8687H56.0729Z" fill="#101111"/>
<path d="M90.7632 82.2209C90.7632 84.9902 92.6717 86.9652 93.2681 87.5147C93.3911 87.6281 93.5112 87.7452 93.6276 87.8665C93.834 88.0815 94.0345 88.2696 94.1211 88.3257C94.2331 88.3977 94.2679 88.7805 94.1979 89.1753L92.7261 97.5192C92.6564 97.9149 92.9045 98.2378 93.2772 98.2378H101.132C101.505 98.2378 101.753 97.9149 101.683 97.5192L100.211 89.1753C100.142 88.7804 100.176 88.3977 100.289 88.3257C100.365 88.2765 100.528 88.1257 100.706 87.9442C100.87 87.7777 101.039 87.6177 101.213 87.4633C101.877 86.8725 103.647 85.0336 103.647 82.2209C103.647 78.3852 100.757 75.2649 97.2047 75.2649C93.6524 75.2648 90.7632 78.3851 90.7632 82.2209Z" fill="white"/>
<path d="M101.132 98.643H93.2772C92.9844 98.643 92.7227 98.5233 92.5403 98.3059C92.349 98.078 92.2714 97.7656 92.3271 97.449L93.7989 89.105C93.839 88.8785 93.8323 88.6915 93.8167 88.6039C93.6525 88.4726 93.4331 88.249 93.3354 88.1471C93.2278 88.035 93.1129 87.9225 92.9936 87.8128C92.3753 87.243 90.358 85.156 90.358 82.2209C90.358 78.1619 93.4294 74.8597 97.2047 74.8597C100.98 74.8597 104.052 78.1619 104.052 82.2209C104.052 85.1617 102.255 87.0784 101.482 87.766C101.309 87.9201 101.145 88.0756 100.995 88.2281C100.874 88.3517 100.717 88.5054 100.593 88.6042C100.577 88.6919 100.571 88.8786 100.611 89.1048L102.082 97.4489C102.138 97.7661 102.06 98.0785 101.869 98.3062C101.686 98.5233 101.424 98.643 101.132 98.643ZM97.2047 75.67C93.8762 75.67 91.1683 78.6087 91.1683 82.2208C91.1683 84.8264 92.9856 86.7035 93.5426 87.2168C93.674 87.3377 93.8009 87.462 93.9199 87.586C94.1571 87.8331 94.3068 87.9622 94.3421 87.9861C94.7403 88.242 94.6377 89.0152 94.5968 89.2461L93.1251 97.5896C93.111 97.6697 93.124 97.7409 93.161 97.7849C93.1879 97.817 93.226 97.8326 93.2772 97.8326H101.132C101.183 97.8326 101.221 97.817 101.248 97.785C101.285 97.7409 101.298 97.6696 101.284 97.5891L99.8125 89.2457C99.7717 89.0147 99.6696 88.241 100.07 87.9845C100.101 87.9633 100.226 87.8545 100.417 87.6602C100.58 87.4949 100.757 87.3267 100.943 87.1605C101.634 86.5456 103.241 84.8334 103.241 82.2208C103.241 78.6087 100.533 75.67 97.2047 75.67ZM100.514 88.6622C100.513 88.6633 100.511 88.6644 100.509 88.6656C100.511 88.6645 100.513 88.6633 100.514 88.6622Z" fill="#101111"/>
<path d="M101.132 98.6688H93.2773C92.9811 98.6688 92.7052 98.5426 92.5205 98.3225C92.3243 98.0888 92.2446 97.7687 92.3017 97.4445L93.7734 89.1005C93.8116 88.8856 93.8067 88.706 93.7928 88.6178C93.628 88.4846 93.4133 88.2657 93.3167 88.165C93.2099 88.0537 93.0953 87.9416 92.976 87.8318C92.3558 87.2603 90.3322 85.1667 90.3322 82.2209C90.3322 78.1477 93.4152 74.8339 97.2047 74.8339C100.994 74.8339 104.078 78.1477 104.078 82.2209C104.078 85.1721 102.275 87.0954 101.499 87.7853C101.327 87.9389 101.163 88.0939 101.014 88.2463C100.894 88.3677 100.741 88.5182 100.617 88.6182C100.603 88.7062 100.598 88.8859 100.636 89.1005L102.108 97.4444C102.165 97.7692 102.085 98.0892 101.888 98.3228C101.701 98.5459 101.432 98.6688 101.132 98.6688Z" fill="white"/>
<path d="M101.132 99.0739H93.2774C92.8611 99.0739 92.4721 98.895 92.2102 98.5829C91.9369 98.2573 91.8248 97.8167 91.9027 97.3742L93.3745 89.03C93.3896 88.9451 93.3958 88.8704 93.3974 88.8115C93.2553 88.6825 93.1107 88.5354 93.0245 88.4456C92.9236 88.3404 92.815 88.2341 92.7016 88.1296C92.0508 87.53 89.9271 85.3316 89.9271 82.2209C89.9271 77.9242 93.1919 74.4287 97.2048 74.4287C101.218 74.4287 104.483 77.9242 104.483 82.2209C104.483 85.3363 102.585 87.3617 101.769 88.0879C101.603 88.2358 101.446 88.3846 101.303 88.5302C101.195 88.6399 101.098 88.7341 101.012 88.8118C101.014 88.8707 101.02 88.9453 101.035 89.03L102.507 97.374C102.584 97.8173 102.472 98.258 102.199 98.5834C101.933 98.8997 101.554 99.0739 101.132 99.0739ZM97.2048 75.2389C93.6386 75.2389 90.7374 78.371 90.7374 82.2208C90.7374 85.0019 92.6611 86.9904 93.2506 87.5336C93.3762 87.6494 93.4968 87.7675 93.6091 87.8845C93.6911 87.97 93.8983 88.1821 94.0476 88.3027C94.1256 88.3658 94.1774 88.4556 94.193 88.5547C94.2192 88.7205 94.2115 88.951 94.1724 89.1712L92.7007 97.5148C92.6645 97.7208 92.7119 97.9202 92.8309 98.062C92.9385 98.1902 93.1012 98.2636 93.2774 98.2636H101.132C101.313 98.2636 101.468 98.194 101.578 98.0622C101.697 97.9205 101.745 97.7208 101.709 97.5143L100.237 89.1708C100.198 88.9509 100.191 88.7208 100.217 88.5552C100.232 88.456 100.284 88.3661 100.362 88.303C100.451 88.2315 100.576 88.1137 100.725 87.9623C100.88 87.8039 101.05 87.6424 101.23 87.4825C101.964 86.829 103.672 85.0081 103.672 82.2209C103.673 78.371 100.771 75.2389 97.2048 75.2389Z" fill="#101111"/>
<path d="M100.495 97.691H96.0889C95.8651 97.691 95.6837 97.5096 95.6837 97.2859C95.6837 97.0621 95.8651 96.8807 96.0889 96.8807H100.495C100.719 96.8807 100.9 97.0621 100.9 97.2859C100.9 97.5096 100.719 97.691 100.495 97.691Z" fill="#101111"/>
<path d="M97.8993 76.2746C94.5851 76.2746 91.8888 79.2018 91.8888 82.7996Z" fill="white"/>
<path d="M91.8888 83.2048C91.665 83.2048 91.4836 83.0234 91.4836 82.7996C91.4836 78.9784 94.3617 75.8695 97.8993 75.8695C98.1231 75.8695 98.3045 76.0509 98.3045 76.2746C98.3045 76.4984 98.1231 76.6798 97.8993 76.6798C94.8085 76.6798 92.294 79.4252 92.294 82.7996C92.294 83.0234 92.1126 83.2048 91.8888 83.2048Z" fill="#101111"/>
<path d="M144.823 112.076C144.599 112.076 144.418 111.894 144.418 111.67V65.7181C144.418 65.4943 144.599 65.3129 144.823 65.3129C145.047 65.3129 145.228 65.4943 145.228 65.7181V111.67C145.228 111.894 145.047 112.076 144.823 112.076Z" fill="#101111"/>
<path d="M48.8932 73.9332C48.6694 73.9332 48.488 73.7518 48.488 73.5281V57.4413C48.488 52.0678 53.1891 47.696 58.9674 47.696H72.0776C72.3013 47.696 72.4827 47.8774 72.4827 48.1012C72.4827 48.325 72.3013 48.5064 72.0776 48.5064H58.9674C53.6358 48.5064 49.2984 52.5146 49.2984 57.4413V73.5281C49.2984 73.7518 49.117 73.9332 48.8932 73.9332Z" fill="#101111"/>
<path d="M93.8839 88.6855C93.8852 88.6864 93.8865 88.6872 93.8878 88.6881C93.8865 88.6872 93.8852 88.6864 93.8839 88.6855Z" fill="white"/>
<path d="M93.8876 89.0934C93.8116 89.0934 93.7347 89.0721 93.6664 89.0274C93.666 89.0271 93.6651 89.0264 93.6639 89.0257C93.663 89.0251 93.6621 89.0245 93.6611 89.0239C93.6603 89.0233 93.6596 89.0228 93.6592 89.0226C93.6569 89.0211 93.6546 89.0196 93.653 89.0184C93.4703 88.8917 93.4239 88.6414 93.549 88.4577C93.674 88.2738 93.9237 88.2249 94.1087 88.3484C94.1111 88.35 94.1143 88.352 94.1161 88.3533C94.2998 88.4784 94.3484 88.7281 94.2251 88.913C94.1471 89.03 94.0186 89.0934 93.8876 89.0934Z" fill="#101111"/>
<path d="M100.524 89.0926C100.392 89.0926 100.262 89.0282 100.185 88.9098C100.062 88.7236 100.113 88.4738 100.299 88.3503C100.3 88.3495 100.304 88.3468 100.305 88.3461C100.307 88.3446 100.311 88.3423 100.311 88.3419C100.499 88.2226 100.747 88.2765 100.868 88.4626C100.99 88.6487 100.938 88.8977 100.754 89.0209C100.752 89.0217 100.748 89.0243 100.747 89.025C100.746 89.0261 100.744 89.0271 100.743 89.0276C100.675 89.0716 100.599 89.0926 100.524 89.0926Z" fill="#101111"/>
<path d="M127.564 30.3802C127.552 30.3802 127.54 30.3797 127.528 30.3787C127.305 30.3593 127.141 30.1628 127.16 29.9399C127.45 26.6117 126.992 23.3152 125.799 20.142C124.644 17.0682 122.86 14.2591 120.496 11.7927C115.006 6.06458 107.098 2.99014 98.8036 3.35918C98.7976 3.35941 98.7917 3.35958 98.7856 3.35958H98.7665C98.5427 3.35958 98.3613 3.17819 98.3613 2.95443C98.3613 2.73067 98.5427 2.54927 98.7665 2.54927H98.7767C107.302 2.17282 115.431 5.33761 121.081 11.2321C123.521 13.7781 125.364 16.68 126.558 19.857C127.793 23.1445 128.267 26.5605 127.967 30.0102C127.949 30.2211 127.772 30.3802 127.564 30.3802Z" fill="#101111"/>
<path d="M171.308 123.529L71.7928 145.906C62.6247 147.967 53.5212 142.206 51.4597 133.038C49.3981 123.87 55.1591 114.767 64.3273 112.705L163.842 90.3279C173.01 88.2663 182.114 94.0273 184.175 103.195C186.237 112.364 180.476 121.467 171.308 123.529Z" fill="#DC4ECE"/>
<path d="M68.0262 146.732C64.7662 146.732 61.5666 145.811 58.7447 144.026C54.8128 141.537 52.0852 137.667 51.0644 133.127C50.0436 128.587 50.8518 123.922 53.3399 119.99C55.8282 116.058 59.6986 113.33 64.2384 112.31L163.753 89.9327C168.293 88.9119 172.958 89.72 176.89 92.2082C180.822 94.6964 183.55 98.5669 184.57 103.107C185.591 107.646 184.783 112.312 182.295 116.244C179.807 120.176 175.936 122.903 171.396 123.924L71.8817 146.301C70.6003 146.589 69.3084 146.732 68.0262 146.732ZM167.607 90.3127C166.384 90.3127 165.153 90.4484 163.931 90.7232L64.4162 113.1C60.0876 114.074 56.3972 116.674 54.0247 120.423C51.6522 124.172 50.8817 128.621 51.855 132.949C52.8283 137.278 55.429 140.968 59.178 143.341C62.9269 145.713 67.3754 146.484 71.7039 145.51L171.219 123.133C175.547 122.16 179.238 119.559 181.61 115.81C183.983 112.061 184.753 107.613 183.78 103.284C182.806 98.9558 180.206 95.2654 176.457 92.8929C173.766 91.1903 170.715 90.3127 167.607 90.3127Z" fill="#101111"/>
<path d="M83.0103 131.026C82.5799 131.633 82.0048 132.018 81.2856 132.179C80.7098 132.309 80.1623 132.186 79.644 131.811C79.1251 131.437 78.8012 130.962 78.6717 130.386C78.5585 129.883 78.6924 129.304 79.0752 128.652C79.4573 127.999 80.5134 127.233 82.2428 126.352C80.3305 126.253 79.0551 126.002 78.4167 125.597C77.7776 125.193 77.4019 124.739 77.2886 124.235C77.1593 123.66 77.2485 123.092 77.5572 122.531C77.8653 121.971 78.3075 121.625 78.8833 121.496C79.6025 121.334 80.2849 121.427 80.9295 121.772C81.5744 122.119 82.3609 122.509 83.29 122.942C83.0719 122.311 82.8511 121.747 82.6259 121.249C82.4008 120.753 82.2437 120.306 82.1546 119.91C81.9929 119.191 82.0504 118.564 82.3269 118.029C82.6035 117.494 83.0832 117.15 83.767 116.996C84.4861 116.835 85.0919 116.925 85.5852 117.268C86.0777 117.611 86.4053 118.142 86.5671 118.861C86.6723 119.329 86.7111 119.84 86.6849 120.393C86.6581 120.948 86.6953 121.534 86.7973 122.154C87.4708 121.285 88.0375 120.571 88.4985 120.014C88.9588 119.457 89.5131 119.106 90.1606 118.96C90.7355 118.831 91.2831 118.954 91.8021 119.328C92.3205 119.703 92.6452 120.178 92.7745 120.753C92.8878 121.257 92.7332 121.83 92.3108 122.473C91.8886 123.116 90.8345 123.891 89.1494 124.799C91.0529 124.863 92.3354 125.103 92.9964 125.521C93.6572 125.939 94.0445 126.401 94.1576 126.904C94.2871 127.48 94.197 128.048 93.8889 128.608C93.5802 129.169 93.1378 129.514 92.5628 129.644C91.9153 129.789 91.2621 129.7 90.6036 129.376C89.9444 129.052 89.1249 128.641 88.1441 128.143C88.3171 128.747 88.5347 129.293 88.7961 129.782C89.0567 130.272 89.2405 130.75 89.3456 131.217C89.5074 131.937 89.4407 132.566 89.1463 133.104C88.8513 133.644 88.3445 133.993 87.6253 134.155C86.9416 134.309 86.3609 134.204 85.8819 133.838C85.4032 133.474 85.083 132.932 84.9211 132.212C84.824 131.781 84.7709 131.292 84.7614 130.746C84.7521 130.201 84.7099 129.595 84.6369 128.932C83.9826 129.722 83.4407 130.419 83.0103 131.026Z" fill="white"/>
<path d="M87.0418 134.629C86.5156 134.629 86.0448 134.472 85.6361 134.16C85.082 133.739 84.7083 133.113 84.5257 132.301C84.4231 131.845 84.3661 131.324 84.3562 130.753C84.352 130.505 84.3406 130.241 84.3221 129.962C83.9458 130.436 83.6174 130.871 83.3409 131.26C83.3409 131.26 83.3409 131.26 83.3409 131.261C82.8528 131.949 82.1912 132.391 81.3745 132.574C80.6825 132.73 80.0205 132.584 79.4066 132.14C78.8083 131.708 78.4278 131.148 78.2764 130.475C78.1403 129.87 78.2915 129.187 78.7258 128.446C79.0471 127.897 79.7479 127.305 80.8547 126.649C79.6038 126.509 78.7294 126.275 78.1998 125.939C77.4704 125.478 77.0306 124.935 76.8933 124.324C76.7422 123.652 76.8461 122.982 77.2022 122.335C77.5676 121.671 78.1033 121.256 78.7944 121.1C79.6077 120.917 80.3904 121.023 81.121 121.415C81.5401 121.641 82.0237 121.886 82.5659 122.149C82.4627 121.888 82.3595 121.643 82.2568 121.416C82.0214 120.897 81.854 120.42 81.7593 119.999C81.577 119.188 81.6468 118.462 81.9669 117.843C82.3002 117.199 82.8758 116.781 83.678 116.601C84.5088 116.414 85.2282 116.526 85.8163 116.935C86.3929 117.336 86.7784 117.954 86.9623 118.772C87.0746 119.271 87.1174 119.823 87.0895 120.412C87.0785 120.641 87.079 120.876 87.0913 121.118C87.5121 120.583 87.8737 120.133 88.1863 119.755C88.7027 119.13 89.3371 118.73 90.0716 118.565C90.7617 118.409 91.4235 118.555 92.0388 118.999C92.6385 119.433 93.0188 119.993 93.1697 120.664C93.3075 121.277 93.1325 121.96 92.6494 122.695C92.2999 123.227 91.5998 123.815 90.5227 124.479C91.7782 124.6 92.6642 124.832 93.2129 125.179C93.9649 125.655 94.4157 126.205 94.5528 126.815C94.7039 127.487 94.5999 128.156 94.2438 128.804C93.8783 129.468 93.3427 129.883 92.6516 130.039C91.9134 130.205 91.164 130.104 90.4242 129.739C89.976 129.518 89.4575 129.26 88.8541 128.956C88.9462 129.179 89.0461 129.391 89.1532 129.591C89.4311 130.113 89.6286 130.63 89.7407 131.128C89.924 131.943 89.8435 132.674 89.5016 133.299C89.1501 133.941 88.5487 134.362 87.7141 134.55C87.4811 134.602 87.2568 134.629 87.0418 134.629ZM84.6368 128.526C84.6755 128.526 84.7146 128.532 84.7529 128.543C84.9088 128.59 85.0217 128.725 85.0394 128.887C85.1143 129.567 85.157 130.191 85.1663 130.739C85.1753 131.255 85.2257 131.721 85.3162 132.123C85.4578 132.753 85.723 133.208 86.1272 133.516C86.5092 133.807 86.97 133.887 87.5363 133.76C88.1422 133.623 88.5526 133.345 88.7908 132.91C89.0388 132.456 89.0909 131.932 88.9502 131.306C88.854 130.878 88.6818 130.43 88.4383 129.972C88.1645 129.46 87.9343 128.882 87.7545 128.254C87.7101 128.099 87.7618 127.933 87.886 127.83C88.0103 127.728 88.1836 127.709 88.3273 127.782C89.3262 128.288 90.1292 128.691 90.7822 129.012C91.3602 129.297 91.9134 129.374 92.4739 129.248C92.935 129.144 93.2818 128.871 93.5339 128.413C93.7955 127.937 93.8702 127.473 93.7622 126.993C93.674 126.6 93.3433 126.22 92.7796 125.864C92.3702 125.604 91.4056 125.28 89.1357 125.204C88.9528 125.198 88.7966 125.07 88.7548 124.892C88.713 124.713 88.7959 124.529 88.9572 124.442C90.9721 123.357 91.7088 122.651 91.9721 122.25C92.3299 121.706 92.4668 121.232 92.379 120.842C92.2712 120.362 92.0048 119.974 91.5644 119.656C91.1402 119.35 90.7098 119.252 90.2493 119.355C89.6864 119.482 89.2158 119.782 88.8107 120.272C88.3608 120.816 87.807 121.512 87.1175 122.402C87.0187 122.529 86.854 122.586 86.6978 122.546C86.5416 122.507 86.4237 122.378 86.3975 122.219C86.2915 121.576 86.252 120.955 86.2802 120.374C86.3046 119.858 86.2681 119.378 86.1717 118.95C86.0318 118.327 85.7642 117.886 85.3538 117.6C84.9546 117.323 84.4645 117.255 83.8558 117.392C83.2901 117.519 82.9077 117.788 82.6867 118.215C82.4533 118.667 82.4085 119.192 82.55 119.821C82.6326 120.188 82.7823 120.613 82.9949 121.082C83.2218 121.583 83.4499 122.164 83.6729 122.81C83.7261 122.964 83.6821 123.134 83.5613 123.243C83.4404 123.352 83.2662 123.378 83.1187 123.309C82.1895 122.876 81.3884 122.479 80.7377 122.129C80.1763 121.828 79.5986 121.75 78.9722 121.891C78.511 121.995 78.1643 122.268 77.9121 122.726C77.6505 123.202 77.5759 123.666 77.6839 124.146C77.7723 124.54 78.0916 124.912 78.6331 125.254C79.0296 125.506 79.9808 125.83 82.2636 125.948C82.4469 125.957 82.6008 126.088 82.639 126.268C82.6772 126.447 82.5901 126.63 82.4266 126.713C80.3693 127.761 79.6587 128.457 79.4249 128.856C79.0977 129.414 78.9774 129.899 79.067 130.297C79.1751 130.778 79.4413 131.166 79.8809 131.483C80.3047 131.789 80.7348 131.888 81.1967 131.784C81.8207 131.644 82.3059 131.319 82.6798 130.792C83.112 130.182 83.6654 129.469 84.3246 128.673C84.4029 128.579 84.518 128.526 84.6368 128.526Z" fill="#101111"/>
<path d="M104.036 126.298C103.606 126.905 103.031 127.29 102.312 127.451C101.736 127.581 101.188 127.458 100.67 127.083C100.151 126.71 99.8272 126.234 99.6977 125.658C99.5845 125.155 99.7184 124.576 100.101 123.924C100.483 123.271 101.539 122.505 103.269 121.624C101.356 121.525 100.081 121.274 99.4427 120.869C98.8036 120.465 98.4279 120.011 98.3146 119.507C98.1853 118.932 98.2745 118.364 98.5832 117.803C98.8913 117.243 99.3335 116.897 99.9093 116.768C100.628 116.606 101.311 116.699 101.956 117.044C102.6 117.391 103.387 117.781 104.316 118.214C104.098 117.583 103.877 117.019 103.652 116.521C103.427 116.025 103.27 115.578 103.181 115.182C103.019 114.463 103.076 113.836 103.353 113.301C103.63 112.766 104.109 112.422 104.793 112.268C105.512 112.107 106.118 112.197 106.611 112.54C107.104 112.882 107.431 113.414 107.593 114.133C107.698 114.601 107.737 115.112 107.711 115.665C107.684 116.22 107.721 116.806 107.823 117.426C108.497 116.557 109.063 115.843 109.525 115.286C109.985 114.729 110.539 114.378 111.187 114.232C111.762 114.103 112.309 114.226 112.828 114.6C113.346 114.975 113.671 115.45 113.8 116.025C113.914 116.529 113.759 117.102 113.337 117.745C112.915 118.388 111.861 119.163 110.175 120.071C112.079 120.135 113.361 120.375 114.022 120.793C114.683 121.212 115.07 121.673 115.184 122.176C115.313 122.752 115.223 123.32 114.915 123.88C114.606 124.441 114.164 124.786 113.589 124.916C112.941 125.061 112.288 124.972 111.63 124.648C110.97 124.324 110.151 123.913 109.17 123.415C109.343 124.019 109.561 124.565 109.822 125.054C110.083 125.544 110.267 126.022 110.372 126.489C110.533 127.209 110.467 127.838 110.172 128.376C109.877 128.916 109.37 129.265 108.651 129.427C107.968 129.581 107.387 129.476 106.908 129.11C106.429 128.746 106.109 128.204 105.947 127.484C105.85 127.053 105.797 126.564 105.787 126.018C105.778 125.473 105.736 124.867 105.663 124.204C105.009 124.994 104.467 125.691 104.036 126.298Z" fill="white"/>
<path d="M108.068 129.901C107.542 129.901 107.071 129.744 106.662 129.432C106.108 129.011 105.734 128.385 105.552 127.573C105.449 127.117 105.392 126.596 105.382 126.025C105.378 125.777 105.367 125.513 105.348 125.234C104.972 125.708 104.643 126.143 104.367 126.533C103.879 127.221 103.217 127.663 102.401 127.847C101.708 128.002 101.046 127.856 100.433 127.412C99.8342 126.981 99.4538 126.42 99.3024 125.747C99.1662 125.142 99.3175 124.459 99.7517 123.719C100.073 123.17 100.774 122.577 101.881 121.921C100.63 121.781 99.7553 121.547 99.2258 121.211C98.4963 120.75 98.0566 120.207 97.9193 119.596C97.7681 118.924 97.872 118.255 98.2282 117.607C98.5936 116.943 99.1293 116.528 99.8204 116.372C100.634 116.19 101.416 116.296 102.147 116.687C102.566 116.913 103.05 117.158 103.592 117.422C103.489 117.16 103.386 116.915 103.283 116.688C103.047 116.169 102.88 115.692 102.785 115.271C102.603 114.46 102.673 113.734 102.993 113.115C103.326 112.471 103.902 112.053 104.704 111.873C105.535 111.686 106.254 111.799 106.842 112.207C107.419 112.608 107.804 113.226 107.988 114.044C108.101 114.543 108.143 115.095 108.115 115.684C108.104 115.913 108.105 116.149 108.117 116.39C108.538 115.856 108.899 115.406 109.212 115.027C109.729 114.403 110.363 114.002 111.097 113.837C111.788 113.681 112.449 113.828 113.065 114.271C113.664 114.705 114.045 115.265 114.196 115.936C114.333 116.549 114.158 117.232 113.675 117.967C113.326 118.5 112.626 119.088 111.549 119.751C112.804 119.872 113.69 120.104 114.239 120.451C114.991 120.927 115.442 121.477 115.579 122.087C115.73 122.759 115.626 123.428 115.27 124.076C114.904 124.74 114.368 125.155 113.677 125.311C112.939 125.477 112.19 125.376 111.45 125.011C111.001 124.79 110.483 124.532 109.88 124.228C109.972 124.451 110.072 124.663 110.179 124.863C110.457 125.385 110.655 125.902 110.767 126.4C110.95 127.215 110.869 127.946 110.528 128.571C110.176 129.213 109.575 129.635 108.74 129.822C108.507 129.875 108.283 129.901 108.068 129.901ZM105.663 123.798C105.702 123.798 105.741 123.804 105.779 123.815C105.935 123.862 106.048 123.997 106.065 124.159C106.14 124.839 106.183 125.462 106.192 126.011C106.201 126.527 106.252 126.993 106.342 127.395C106.484 128.025 106.749 128.48 107.153 128.788C107.535 129.079 107.996 129.159 108.562 129.032C109.168 128.895 109.579 128.617 109.817 128.182C110.065 127.728 110.117 127.204 109.976 126.578C109.88 126.15 109.708 125.702 109.464 125.244C109.19 124.732 108.96 124.154 108.781 123.526C108.736 123.372 108.788 123.205 108.912 123.102C109.036 123 109.21 122.981 109.353 123.054C110.351 123.56 111.154 123.962 111.808 124.284C112.386 124.569 112.939 124.646 113.5 124.52C113.961 124.416 114.308 124.143 114.56 123.685C114.822 123.209 114.896 122.745 114.788 122.265C114.7 121.872 114.369 121.492 113.806 121.136C113.396 120.877 112.432 120.552 110.162 120.476C109.979 120.47 109.823 120.342 109.781 120.164C109.739 119.985 109.822 119.801 109.983 119.714C111.998 118.629 112.735 117.923 112.998 117.522C113.356 116.978 113.493 116.504 113.405 116.114C113.297 115.634 113.031 115.247 112.59 114.928C112.166 114.622 111.736 114.524 111.275 114.627C110.712 114.754 110.242 115.054 109.837 115.544C109.386 116.088 108.832 116.785 108.143 117.674C108.045 117.801 107.88 117.858 107.724 117.818C107.568 117.779 107.45 117.65 107.423 117.492C107.317 116.849 107.278 116.228 107.306 115.646C107.331 115.13 107.294 114.65 107.198 114.222C107.058 113.599 106.79 113.158 106.38 112.872C105.981 112.595 105.49 112.527 104.882 112.664C104.316 112.791 103.934 113.06 103.713 113.487C103.479 113.939 103.435 114.464 103.576 115.093C103.658 115.46 103.808 115.885 104.021 116.354C104.248 116.855 104.476 117.436 104.699 118.082C104.752 118.236 104.708 118.406 104.587 118.515C104.466 118.624 104.292 118.65 104.145 118.582C103.215 118.148 102.414 117.751 101.764 117.401C101.202 117.1 100.624 117.022 99.9982 117.163C99.537 117.267 99.1902 117.54 98.9381 117.998C98.6765 118.474 98.6019 118.938 98.7099 119.418C98.7983 119.812 99.1177 120.184 99.6591 120.526C100.056 120.778 101.007 121.102 103.29 121.22C103.473 121.229 103.627 121.36 103.665 121.54C103.703 121.719 103.616 121.902 103.453 121.985C101.395 123.033 100.685 123.729 100.451 124.128C100.124 124.686 100.003 125.171 100.093 125.569C100.201 126.05 100.467 126.438 100.907 126.755C101.331 127.061 101.761 127.16 102.223 127.056C102.847 126.916 103.332 126.591 103.706 126.064C104.138 125.454 104.691 124.741 105.351 123.945C105.429 123.851 105.544 123.798 105.663 123.798Z" fill="#101111"/>
<path d="M125.062 121.57C124.632 122.177 124.057 122.562 123.337 122.723C122.762 122.853 122.214 122.731 121.696 122.356C121.177 121.982 120.853 121.506 120.724 120.93C120.61 120.427 120.744 119.849 121.127 119.196C121.509 118.543 122.565 117.777 124.295 116.896C122.382 116.797 121.107 116.546 120.469 116.141C119.83 115.737 119.454 115.283 119.34 114.779C119.211 114.204 119.3 113.636 119.609 113.075C119.917 112.515 120.359 112.169 120.935 112.04C121.654 111.878 122.337 111.971 122.981 112.317C123.626 112.663 124.413 113.053 125.342 113.486C125.124 112.855 124.903 112.291 124.678 111.793C124.453 111.297 124.296 110.85 124.206 110.454C124.045 109.735 124.102 109.108 124.379 108.573C124.655 108.039 125.135 107.694 125.819 107.541C126.538 107.379 127.144 107.469 127.637 107.812C128.13 108.155 128.457 108.686 128.619 109.405C128.724 109.873 128.763 110.384 128.737 110.938C128.71 111.492 128.747 112.079 128.849 112.698C129.523 111.829 130.089 111.115 130.55 110.558C131.011 110.001 131.565 109.65 132.212 109.504C132.787 109.375 133.335 109.498 133.854 109.872C134.372 110.247 134.697 110.722 134.826 111.297C134.94 111.801 134.785 112.375 134.363 113.017C133.94 113.66 132.886 114.436 131.201 115.343C133.105 115.407 134.387 115.647 135.048 116.066C135.709 116.484 136.096 116.945 136.209 117.448C136.339 118.024 136.249 118.593 135.941 119.153C135.632 119.714 135.19 120.058 134.615 120.188C133.967 120.333 133.314 120.245 132.655 119.92C131.996 119.596 131.177 119.185 130.196 118.687C130.369 119.291 130.587 119.837 130.848 120.326C131.109 120.816 131.292 121.294 131.397 121.761C131.559 122.481 131.493 123.11 131.198 123.648C130.903 124.188 130.396 124.537 129.677 124.699C128.993 124.853 128.413 124.748 127.934 124.382C127.455 124.018 127.135 123.476 126.973 122.756C126.876 122.325 126.823 121.836 126.813 121.29C126.804 120.745 126.762 120.14 126.689 119.476C126.034 120.266 125.493 120.963 125.062 121.57Z" fill="white"/>
<path d="M129.094 125.173C128.567 125.173 128.097 125.016 127.688 124.704C127.134 124.283 126.76 123.657 126.578 122.845C126.475 122.389 126.418 121.868 126.408 121.297C126.404 121.049 126.392 120.785 126.374 120.506C125.998 120.98 125.669 121.415 125.393 121.805C124.905 122.493 124.243 122.935 123.426 123.119C122.734 123.274 122.072 123.128 121.458 122.684C120.86 122.253 120.48 121.692 120.328 121.019C120.192 120.414 120.343 119.731 120.778 118.991C121.099 118.442 121.8 117.849 122.907 117.193C121.655 117.053 120.781 116.819 120.252 116.483C119.522 116.022 119.083 115.479 118.945 114.868C118.794 114.196 118.898 113.527 119.254 112.879C119.619 112.215 120.155 111.8 120.846 111.644C121.659 111.462 122.442 111.568 123.173 111.959C123.592 112.185 124.075 112.43 124.618 112.694C124.515 112.433 124.411 112.188 124.309 111.96C124.073 111.441 123.906 110.964 123.811 110.543C123.629 109.732 123.699 109.006 124.019 108.387C124.352 107.743 124.928 107.326 125.73 107.145C126.561 106.958 127.28 107.071 127.868 107.479C128.445 107.88 128.83 108.498 129.014 109.316C129.126 109.815 129.169 110.367 129.141 110.957C129.13 111.185 129.131 111.421 129.143 111.662C129.564 111.127 129.926 110.677 130.238 110.299C130.755 109.674 131.389 109.274 132.123 109.109C132.813 108.953 133.475 109.1 134.091 109.543C134.69 109.977 135.071 110.537 135.221 111.208C135.359 111.821 135.184 112.505 134.701 113.239C134.352 113.772 133.652 114.36 132.574 115.023C133.83 115.145 134.716 115.376 135.265 115.723C136.017 116.199 136.467 116.749 136.605 117.359C136.756 118.031 136.652 118.701 136.296 119.348C135.93 120.012 135.394 120.427 134.703 120.583C133.965 120.749 133.216 120.648 132.476 120.283C132.028 120.063 131.509 119.804 130.906 119.5C130.998 119.723 131.098 119.935 131.205 120.135C131.483 120.657 131.68 121.174 131.792 121.672C131.976 122.487 131.895 123.218 131.553 123.843C131.202 124.485 130.6 124.907 129.766 125.094C129.533 125.147 129.309 125.173 129.094 125.173ZM126.689 119.07C126.727 119.07 126.766 119.076 126.805 119.087C126.961 119.134 127.074 119.27 127.091 119.431C127.166 120.112 127.209 120.735 127.218 121.283C127.227 121.799 127.278 122.265 127.368 122.667C127.51 123.297 127.775 123.752 128.179 124.06C128.561 124.351 129.022 124.431 129.588 124.304C130.194 124.167 130.604 123.889 130.843 123.454C131.091 123 131.143 122.476 131.002 121.85C130.906 121.422 130.734 120.974 130.49 120.516C130.216 120.004 129.986 119.426 129.806 118.799C129.762 118.644 129.814 118.477 129.938 118.374C130.062 118.272 130.236 118.253 130.379 118.326C131.378 118.833 132.181 119.235 132.834 119.556C133.412 119.841 133.966 119.918 134.526 119.792C134.987 119.689 135.334 119.415 135.586 118.957C135.847 118.482 135.922 118.017 135.814 117.537C135.726 117.144 135.395 116.764 134.831 116.408C134.422 116.149 133.458 115.824 131.188 115.748C131.005 115.742 130.849 115.614 130.807 115.436C130.765 115.257 130.848 115.073 131.009 114.986C133.024 113.901 133.761 113.195 134.024 112.794C134.382 112.25 134.519 111.776 134.431 111.386C134.323 110.907 134.057 110.519 133.616 110.2C133.192 109.894 132.762 109.796 132.301 109.899C131.738 110.026 131.268 110.326 130.863 110.816C130.413 111.36 129.859 112.056 129.169 112.946C129.071 113.073 128.906 113.13 128.75 113.09C128.593 113.051 128.475 112.923 128.449 112.764C128.343 112.12 128.304 111.499 128.332 110.918C128.356 110.402 128.32 109.922 128.224 109.494C128.084 108.871 127.816 108.43 127.406 108.144C127.007 107.867 126.516 107.799 125.908 107.936C125.342 108.063 124.959 108.332 124.739 108.759C124.505 109.211 124.46 109.736 124.602 110.365C124.684 110.732 124.834 111.157 125.047 111.626C125.274 112.128 125.502 112.709 125.725 113.354C125.778 113.508 125.734 113.678 125.613 113.787C125.492 113.896 125.318 113.923 125.171 113.854C124.241 113.42 123.44 113.023 122.79 112.673C122.228 112.372 121.65 112.294 121.024 112.435C120.563 112.539 120.216 112.812 119.964 113.27C119.702 113.746 119.628 114.21 119.736 114.69C119.824 115.084 120.144 115.456 120.685 115.799C121.081 116.05 122.033 116.374 124.316 116.492C124.499 116.501 124.653 116.633 124.691 116.812C124.729 116.991 124.642 117.174 124.478 117.257C122.421 118.305 121.711 119.001 121.477 119.4C121.15 119.958 121.029 120.443 121.119 120.841C121.227 121.322 121.493 121.71 121.933 122.027C122.357 122.334 122.787 122.432 123.249 122.328C123.873 122.188 124.358 121.863 124.732 121.336C125.164 120.727 125.717 120.014 126.376 119.217C126.455 119.123 126.57 119.07 126.689 119.07Z" fill="#101111"/>
<path d="M146.088 116.842C145.658 117.449 145.083 117.834 144.363 117.995C143.788 118.125 143.24 118.003 142.722 117.628C142.203 117.254 141.879 116.778 141.749 116.202C141.636 115.699 141.77 115.121 142.153 114.468C142.535 113.815 143.591 113.049 145.321 112.168C143.408 112.07 142.133 111.818 141.494 111.413C140.855 111.009 140.48 110.555 140.366 110.051C140.237 109.476 140.326 108.908 140.635 108.347C140.943 107.787 141.385 107.441 141.961 107.312C142.68 107.15 143.363 107.243 144.007 107.589C144.652 107.935 145.439 108.325 146.368 108.758C146.15 108.127 145.929 107.563 145.704 107.065C145.479 106.569 145.322 106.122 145.232 105.726C145.071 105.007 145.128 104.38 145.405 103.845C145.681 103.311 146.161 102.966 146.845 102.812C147.564 102.651 148.17 102.741 148.663 103.084C149.155 103.427 149.483 103.958 149.645 104.677C149.75 105.145 149.789 105.656 149.763 106.209C149.736 106.764 149.773 107.351 149.875 107.97C150.549 107.101 151.115 106.387 151.576 105.83C152.037 105.273 152.591 104.922 153.238 104.776C153.813 104.647 154.361 104.77 154.88 105.144C155.398 105.519 155.723 105.994 155.852 106.569C155.966 107.073 155.811 107.646 155.389 108.289C154.966 108.932 153.912 109.708 152.227 110.615C154.131 110.679 155.413 110.919 156.074 111.337C156.735 111.756 157.122 112.217 157.235 112.72C157.365 113.296 157.275 113.865 156.967 114.424C156.658 114.985 156.216 115.33 155.641 115.46C154.993 115.605 154.34 115.517 153.681 115.192C153.022 114.868 152.203 114.457 151.222 113.959C151.395 114.563 151.612 115.109 151.874 115.598C152.135 116.088 152.318 116.566 152.423 117.033C152.585 117.753 152.518 118.382 152.224 118.92C151.929 119.46 151.422 119.809 150.703 119.971C150.019 120.125 149.439 120.02 148.96 119.654C148.481 119.29 148.161 118.748 147.999 118.028C147.902 117.597 147.849 117.108 147.839 116.562C147.83 116.017 147.788 115.412 147.715 114.748C147.06 115.538 146.518 116.235 146.088 116.842Z" fill="white"/>
<path d="M150.119 120.445C149.593 120.445 149.122 120.288 148.714 119.977C148.16 119.555 147.786 118.929 147.603 118.117C147.501 117.661 147.444 117.14 147.434 116.569C147.43 116.321 147.418 116.057 147.4 115.778C147.024 116.252 146.695 116.687 146.418 117.077C145.93 117.765 145.269 118.207 144.452 118.391C143.76 118.546 143.098 118.4 142.484 117.956C141.886 117.525 141.505 116.965 141.354 116.291C141.218 115.686 141.369 115.003 141.803 114.263C142.125 113.714 142.825 113.121 143.932 112.465C142.681 112.325 141.807 112.091 141.277 111.755C140.548 111.294 140.108 110.751 139.971 110.14C139.82 109.468 139.924 108.799 140.28 108.152C140.645 107.487 141.181 107.072 141.872 106.917C142.685 106.734 143.468 106.84 144.199 107.231C144.618 107.457 145.101 107.703 145.644 107.966C145.54 107.704 145.437 107.46 145.334 107.233C145.099 106.713 144.932 106.236 144.837 105.815C144.655 105.004 144.724 104.278 145.044 103.659C145.378 103.015 145.953 102.598 146.756 102.417C147.586 102.23 148.306 102.343 148.894 102.751C149.47 103.152 149.856 103.77 150.04 104.588C150.152 105.088 150.195 105.64 150.167 106.229C150.156 106.457 150.157 106.693 150.169 106.934C150.59 106.399 150.951 105.949 151.264 105.572C151.78 104.947 152.415 104.546 153.149 104.381C153.839 104.225 154.501 104.372 155.116 104.815C155.716 105.249 156.096 105.809 156.247 106.48C156.385 107.093 156.21 107.777 155.727 108.511C155.378 109.044 154.677 109.632 153.6 110.295C154.856 110.417 155.742 110.648 156.29 110.995C157.042 111.471 157.493 112.021 157.63 112.631C157.781 113.304 157.678 113.973 157.321 114.62C156.956 115.284 156.42 115.7 155.729 115.855C154.991 116.021 154.242 115.92 153.502 115.555C153.052 115.334 152.534 115.076 151.932 114.772C152.024 114.995 152.124 115.207 152.231 115.407C152.509 115.929 152.706 116.446 152.818 116.945C153.001 117.76 152.921 118.49 152.579 119.115C152.228 119.758 151.626 120.179 150.792 120.366C150.559 120.419 150.334 120.445 150.119 120.445ZM147.714 114.343C147.753 114.343 147.792 114.348 147.831 114.36C147.986 114.406 148.099 114.542 148.117 114.703C148.192 115.383 148.235 116.007 148.244 116.555C148.253 117.071 148.303 117.537 148.394 117.939C148.535 118.569 148.801 119.024 149.205 119.332C149.587 119.623 150.048 119.703 150.614 119.576C151.22 119.44 151.63 119.162 151.868 118.726C152.116 118.273 152.169 117.748 152.028 117.122C151.932 116.695 151.759 116.246 151.516 115.788C151.242 115.276 151.012 114.698 150.832 114.071C150.788 113.916 150.839 113.749 150.964 113.647C151.088 113.544 151.261 113.525 151.405 113.598C152.388 114.096 153.214 114.51 153.86 114.828C154.438 115.113 154.991 115.19 155.552 115.064C156.013 114.961 156.359 114.687 156.612 114.229C156.873 113.754 156.948 113.289 156.84 112.809C156.752 112.416 156.421 112.036 155.857 111.68C155.448 111.421 154.483 111.096 152.213 111.02C152.03 111.014 151.874 110.886 151.832 110.708C151.791 110.529 151.874 110.345 152.035 110.258C154.05 109.173 154.786 108.467 155.05 108.066C155.408 107.522 155.544 107.048 155.457 106.658C155.349 106.179 155.082 105.791 154.642 105.472C154.218 105.166 153.788 105.068 153.327 105.171C152.764 105.298 152.294 105.598 151.888 106.088C151.439 106.632 150.885 107.328 150.195 108.218C150.096 108.345 149.932 108.402 149.775 108.363C149.619 108.323 149.501 108.195 149.475 108.036C149.369 107.392 149.33 106.771 149.358 106.19C149.382 105.674 149.346 105.195 149.249 104.766C149.109 104.143 148.842 103.702 148.431 103.417C148.032 103.139 147.542 103.071 146.933 103.208C146.368 103.335 145.985 103.604 145.764 104.031C145.531 104.483 145.486 105.008 145.628 105.637C145.71 106.005 145.86 106.429 146.072 106.898C146.299 107.399 146.527 107.981 146.751 108.626C146.804 108.78 146.76 108.951 146.639 109.059C146.518 109.168 146.344 109.194 146.196 109.126C145.267 108.693 144.466 108.295 143.815 107.946C143.254 107.644 142.676 107.566 142.05 107.707C141.589 107.811 141.242 108.084 140.99 108.542C140.728 109.018 140.653 109.482 140.761 109.962C140.85 110.356 141.169 110.729 141.711 111.071C142.107 111.322 143.058 111.646 145.341 111.764C145.524 111.773 145.678 111.905 145.717 112.084C145.755 112.263 145.668 112.446 145.504 112.529C143.447 113.577 142.736 114.273 142.503 114.672C142.175 115.23 142.055 115.715 142.145 116.114C142.253 116.594 142.519 116.982 142.959 117.299C143.382 117.606 143.813 117.704 144.274 117.6C144.898 117.46 145.383 117.135 145.757 116.608C146.19 115.998 146.743 115.285 147.402 114.489C147.481 114.395 147.596 114.343 147.714 114.343Z" fill="#101111"/>
<path d="M108.43 135.261C108.244 135.261 108.077 135.133 108.035 134.944C107.986 134.726 108.124 134.509 108.342 134.46L167.932 121.177C173.605 119.92 177.731 117.258 179.867 113.48C181.797 110.066 182.017 105.877 180.504 101.368C180.433 101.156 180.547 100.926 180.759 100.855C180.971 100.783 181.201 100.898 181.272 101.11C182.861 105.843 182.619 110.259 180.572 113.879C178.321 117.863 174.01 120.66 168.108 121.967L108.518 135.251C108.489 135.258 108.459 135.261 108.43 135.261Z" fill="#101111"/>
<path d="M37.8356 70.5462C28.7464 78.6178 19.509 83.9718 6.92407 88.1399C7.01373 88.9642 7.51305 93.5558 9.80236 114.606C12.8563 142.687 42.326 153.228 46.8984 154.84C50.8876 152.514 77.5991 135.606 74.5452 107.525C72.2559 86.4741 71.7565 81.8825 71.6669 81.0582C58.4819 79.7089 47.3816 76.0825 37.8356 70.5462Z" fill="#10B981"/>
<path d="M46.8984 155.246C46.853 155.246 46.8075 155.238 46.7636 155.223C37.8665 152.086 31.3963 147.917 27.5352 144.971C22.7651 141.333 18.8524 137.216 15.9055 132.736C12.2969 127.249 10.108 121.164 9.3996 114.65L6.52131 88.1838C6.5007 87.9939 6.61542 87.8154 6.7967 87.7554C19.1486 83.6643 28.3508 78.4271 37.5666 70.2433C37.6973 70.1272 37.8877 70.1081 38.0389 70.1958C42.8473 72.9845 48.052 75.269 53.5083 76.9859C59.1547 78.7626 65.278 79.9972 71.7082 80.6552C71.8983 80.6747 72.049 80.8244 72.0697 81.0144L74.948 107.481C78.0756 136.24 50.282 153.336 47.1025 155.19C47.0398 155.227 46.9694 155.246 46.8984 155.246ZM7.36224 88.4211L10.2052 114.562C10.8995 120.947 13.0452 126.912 16.5825 132.29C19.479 136.694 23.3295 140.744 28.0267 144.327C31.8158 147.217 38.1493 151.301 46.8557 154.395C50.6624 152.142 77.1675 135.385 74.1423 107.568L71.2994 81.4274C64.9339 80.7557 58.8679 79.5218 53.265 77.7587C47.8474 76.054 42.675 73.7952 37.8857 71.0429C28.7325 79.1258 19.5728 84.3408 7.36224 88.4211Z" fill="#101111"/>
<path d="M59.6242 101.129L55.2913 97.6797C55.2723 97.6646 54.1873 99.0819 54.1721 99.1009L38.9813 118.186C38.9662 118.205 38.9384 118.208 38.9195 118.193L27.5292 109.126C27.5101 109.111 27.4825 109.114 27.4674 109.133L24.0184 113.466C24.0032 113.485 24.0064 113.512 24.0254 113.528L35.4507 122.621L35.4501 122.622C35.4349 122.641 35.4381 122.668 35.4571 122.683L39.79 126.132C39.8089 126.147 39.8367 126.144 39.8518 126.125L39.8857 126.153L43.3626 121.785C43.3775 121.766 43.3747 121.739 43.3563 121.723L43.3556 121.723L58.5739 102.605C58.589 102.586 59.6432 101.144 59.6242 101.129Z" fill="white"/>
<path d="M39.8857 126.558C39.853 126.558 39.8206 126.554 39.7892 126.546C39.6979 126.541 39.6106 126.507 39.5375 126.449L35.2047 123C35.1506 122.957 35.1081 122.904 35.0791 122.843L23.773 113.845C23.5793 113.69 23.5471 113.407 23.7012 113.213L27.1502 108.881C27.3048 108.687 27.5878 108.655 27.7814 108.809L38.8891 117.651L53.8551 98.8486L53.8978 98.793C54.0025 98.6567 54.2639 98.3166 54.5027 98.0101C54.6232 97.8555 54.738 97.7094 54.8245 97.6017C54.9966 97.3874 55.0678 97.2988 55.2414 97.2774C55.3493 97.2645 55.4583 97.2949 55.5433 97.3625L59.8764 100.812L59.8764 100.812C59.9453 100.867 60.1521 101.072 59.923 101.419C59.8946 101.462 59.8528 101.523 59.802 101.595C59.715 101.72 59.5933 101.89 59.4403 102.102C59.2081 102.424 58.9102 102.833 58.8909 102.857L43.7652 121.859C43.7507 121.922 43.7222 121.983 43.6792 122.037L40.2026 126.405C40.1353 126.49 40.037 126.544 39.9296 126.556C39.915 126.557 39.9003 126.558 39.8857 126.558ZM35.8202 122.455L39.7938 125.618L42.9587 121.641C42.9711 121.581 42.9975 121.522 43.0385 121.471L58.2535 102.356C58.3295 102.255 58.8065 101.6 59.0801 101.213L55.3491 98.2436C55.1989 98.4338 54.9506 98.7527 54.5403 99.2866C54.5093 99.327 54.4908 99.351 54.4888 99.3535L39.2981 118.438C39.2234 118.532 39.1166 118.591 38.9974 118.605C38.878 118.618 38.7607 118.585 38.6669 118.51L27.5593 109.668L24.5602 113.435L35.703 122.304C35.7553 122.345 35.7945 122.397 35.8202 122.455ZM35.7701 122.87C35.7692 122.871 35.7681 122.873 35.7673 122.874C35.7682 122.872 35.7691 122.871 35.7701 122.87Z" fill="#101111"/>
<path d="M13.2142 116.824C13.0101 116.824 12.8345 116.67 12.812 116.462L9.93367 89.9958C9.91301 89.806 10.0277 89.6275 10.2091 89.5674C20.6113 86.1222 28.6966 81.8937 36.425 75.8569C36.6014 75.7191 36.856 75.7505 36.9937 75.9268C37.1315 76.1032 37.1002 76.3578 36.9238 76.4955C29.196 82.5319 21.1198 86.7763 10.7745 90.2333L13.6175 116.375C13.6417 116.597 13.4809 116.797 13.2585 116.821C13.2437 116.823 13.2289 116.824 13.2142 116.824Z" fill="#101111"/>
</svg>
